<?xml version="1.0" encoding="UTF-8" standalone="no"?>
<!-- Created with Inkscape (http://www.inkscape.org/) -->

<svg
   width="120.575mm"
   height="136.72701mm"
   viewBox="-11 -3 120.575 136.727"
   version="1.1"
   id="svg1"
   inkscape:version="1.4.3 (0d15f75042, 2025-12-25)"
   sodipodi:docname="logo-oscuro.svg"
   xmlns:inkscape="http://www.inkscape.org/namespaces/inkscape"
   xmlns:sodipodi="http://sodipodi.sourceforge.net/DTD/sodipodi-0.dtd"
   xmlns="http://www.w3.org/2000/svg"
   xmlns:svg="http://www.w3.org/2000/svg">
  <sodipodi:namedview
     id="namedview1"
     pagecolor="#ffffff"
     bordercolor="#000000"
     borderopacity="0.25"
     inkscape:showpageshadow="2"
     inkscape:pageopacity="0.0"
     inkscape:pagecheckerboard="0"
     inkscape:deskcolor="#d1d1d1"
     inkscape:document-units="mm"
     inkscape:zoom="1.2296825"
     inkscape:cx="273.64786"
     inkscape:cy="262.66942"
     inkscape:window-width="1898"
     inkscape:window-height="1029"
     inkscape:window-x="0"
     inkscape:window-y="0"
     inkscape:window-maximized="0"
     inkscape:current-layer="layer1" />
  <defs
     id="defs1" />
  <g
     inkscape:label="Capa 1"
     inkscape:groupmode="layer"
     id="layer1"
     transform="translate(-64.58265,-71.899759)">
    <path
       id="path25-7"
       style="fill:#000000;fill-opacity:1;stroke-width:1.31745"
       d="m 64.905351,90.610409 c -0.27939,-0.001 -0.368684,0.20626 -0.301274,0.67282 0.06009,0.41593 0.144349,2.7351 0.186552,5.15421 l 0.07648,4.398701 1.239718,1.27279 c 1.145498,1.17617 1.181468,1.27382 0.458888,1.27382 -0.664717,0 -0.745707,0.12518 -0.537953,0.83199 0.134478,0.45753 0.340403,0.96773 0.457853,1.13378 0.11745,0.16605 0.24694,0.83099 0.28784,1.47795 0.0409,0.64697 0.23244,1.26017 0.42529,1.36219 0.19285,0.10201 0.5664,0.93394 0.83096,1.84898 0.29005,1.00322 0.84441,1.93994 1.39578,2.35955 0.81251,0.61837 0.88583,0.85448 0.65733,2.1177 -0.14143,0.78187 -0.58461,1.70831 -0.98444,2.05879 -0.72147,0.63242 -0.721,0.64931 0.02429,2.26911 0.41302,0.89768 0.74842,2.04014 0.74569,2.53886 -0.0431,7.68765 1.33625,12.89531 3.89433,14.70402 0.7199,0.50901 0.9617,0.97024 0.9617,1.83141 0,1.00788 0.18502,1.25075 1.48777,1.95182 0.81837,0.44039 1.4888,0.95476 1.4888,1.14308 0,0.77271 1.62571,2.82416 3.06699,3.87005 1.46892,1.06598 1.53579,1.19062 1.46089,2.72283 -0.0432,0.88302 -0.12964,1.97954 -0.19223,2.43706 -0.0626,0.45753 -0.143,1.22459 -0.1788,1.70429 -0.045,0.60308 -0.30432,0.92288 -0.83923,1.03663 -0.71716,0.1525 -0.76428,0.34523 -0.6506,2.6355 0.0674,1.35881 0.24757,2.53346 0.40101,2.61069 0.15345,0.0772 0.28117,0.91508 0.28318,1.8619 0.004,1.93244 1.24953,4.49188 2.84996,5.85598 0.52092,0.444 0.83509,0.95463 0.69815,1.13481 -0.13695,0.1802 0.37603,1.15101 1.13998,2.15749 1.23646,1.62899 1.40053,2.0819 1.495,4.11965 0.0584,1.25902 0.36712,2.92638 0.68523,3.7052 0.42893,1.05014 0.52854,2.15436 0.38705,4.27415 -0.35642,5.34014 -0.65647,7.69705 -1.0573,8.30337 -0.21997,0.33274 -0.43082,1.14941 -0.4687,1.81488 -0.0379,0.66549 -0.25598,2.02692 -0.48473,3.02514 -0.22874,0.99822 -0.57281,2.49558 -0.76429,3.32744 -0.19148,0.83185 -0.35831,2.01986 -0.37052,2.64015 l -0.02222,1.1281 7.1608,0.0889 c 16.267365,0.20236 28.979825,0.21496 31.655435,0.031 l 2.84634,-0.19534 -0.0227,-27.70942 c -0.0142,-17.51864 -0.20479,-31.43647 -0.51883,-37.84317 l -0.31781,-6.48074 a 31.185159,30.996076 0 0 1 -12.67416,2.67581 31.185159,30.996076 0 0 1 -31.185185,-30.99605 31.185159,30.996076 0 0 1 1.43299,-9.288321 c -0.82538,-0.49143 -1.46018,-0.49357 -5.03535,-0.42788 -3.67777,0.0676 -11.67984,-0.29514 -13.444141,-0.60926 -0.04778,-0.008 -0.09186,-0.0122 -0.131774,-0.0124 z m 46.932019,0.35398 -4.43487,0.11782 c -4.26302,0.11325 -4.48895,0.15284 -5.81618,1.01803 -1.2298,0.80161 -1.605104,0.88746 -3.427184,0.78496 -4.79038,-0.2695 -4.62635,-0.28428 -5.0214,0.45631 -0.29837,0.55937 -0.48919,0.6614 -1.68827,0.56327 a 22.798025,22.690443 0 0 0 -0.8661,6.194451 22.798025,22.690443 0 0 0 22.798104,22.69061 22.798025,22.690443 0 0 0 17.34311,-7.96282 c 0.142,-0.93438 0.37802,-1.75501 0.57361,-1.94666 0.23298,-0.22826 0.32175,-0.62908 0.19844,-0.89038 -0.12331,-0.2613 0.10948,-1.00596 0.51676,-1.6552 0.81133,-1.29324 0.94995,-2.27372 0.36277,-2.56883 -0.20793,-0.10455 -0.27776,-0.32257 -0.15451,-0.48473 0.12325,-0.16217 0.0345,-0.48076 -0.1974,-0.70796 -0.24564,-0.24069 -0.37501,-1.2111 -0.31058,-2.32441 l 0.11059,-1.91048 -3.90571,0.0941 -3.90621,0.094 -0.61081,-3.093346 c -0.72165,-3.653565 -0.63428,-3.574545 -7.32411,-6.570135 z m -26.170494,1.7694 a 28.736431,28.551562 0 0 0 -1.13482,7.943191 28.736431,28.551562 0 0 0 28.736754,28.55174 28.736431,28.551562 0 0 0 12.53205,-2.85822 l -0.0372,-0.75448 1.17047,-0.84594 c 0.64361,-0.46523 1.12194,-1.04067 1.06297,-1.27848 -0.059,-0.23779 0.14986,-0.83731 0.46457,-1.33221 0.3147,-0.49489 0.57206,-1.30719 0.57206,-1.80506 0,-0.3216 0.13168,-0.79324 0.32866,-1.23507 a 24.740721,24.633142 0 0 1 -15.98092,5.82859 24.740721,24.633142 0 0 1 -24.740614,-24.63313 24.740721,24.633142 0 0 1 0.90588,-6.603731 c -1.89593,-0.21767 -2.54661,-0.39034 -2.54661,-0.63717 0,-0.15316 -0.40546,-0.27853 -0.90124,-0.27853 -0.12085,0 -0.26834,-0.02175 -0.43201,-0.0615 z" />
    <path
       id="path1-5"
       style="fill:#000000;fill-opacity:1;stroke-width:0.930499"
       d="m 111.84244,71.942055 c -3.8869,0.19269 -7.78144,1.043944 -10.78571,2.476024 -7.800494,3.71836 -13.618544,10.74136 -15.742764,19.0034 -0.8777,3.41362 -0.87924,10.586361 -0.002,14.009871 1.85228,7.23638 6.95313,13.99098 13.35822,17.68904 4.969794,2.86938 9.734074,3.98255 15.923004,3.7207 5.85159,-0.24755 9.29545,-1.30343 14.07569,-4.31584 0.98566,-0.62113 1.91913,-1.12916 2.0745,-1.12916 0.15524,0 1.25542,0.98961 2.44507,2.19916 2.01719,2.05078 2.15289,2.28156 2.01251,3.42003 -0.29618,2.40185 0.0756,2.94135 6.67644,9.69357 1.66416,1.70235 6.28594,6.46742 10.2707,10.58891 3.9848,4.12146 7.77436,7.82277 8.42151,8.22506 h 4.9e-4 c 1.43586,0.89249 2.73989,0.9195 4.48374,0.0935 3.22091,-1.52554 5.13086,-4.59928 4.59761,-7.39942 -0.29026,-1.52414 -1.02055,-2.30443 -23.00396,-24.58159 -2.6293,-2.66435 -2.80894,-2.74774 -5.57916,-2.59006 -1.04,0.0593 -1.38673,-0.16276 -3.2246,-2.06654 -1.13263,-1.17322 -2.05949,-2.25326 -2.05949,-2.40013 0,-0.1469 0.4448,-0.86308 0.98833,-1.59117 1.41571,-1.8964 3.09248,-5.37432 4.1359,-8.57867 1.0864,-3.33626 1.48743,-9.167336 0.85654,-12.452101 -2.22961,-11.60841 -10.19877,-20.30554 -21.28844,-23.23237 -1.48097,-0.39087 -3.10122,-0.639234 -4.78216,-0.752624 -1.2607,-0.085 -2.55541,-0.0943 -3.85103,-0.0296 z m 1.5503,3.594694 c 0.90497,-0.001 1.81962,0.13511 3.50075,0.40902 6.04518,0.98531 11.65865,4.20722 15.68945,9.00488 0.67748,0.80637 1.9856,2.95665 2.9073,4.77828 1.46456,2.89456 1.74239,3.77299 2.20191,6.96797 0.44957,3.126285 0.46508,4.133011 0.10891,6.950751 -1.16959,9.25504 -7.84763,17.18798 -17.06583,20.27196 -3.6134,1.2089 -9.70173,1.42215 -13.31266,0.46628 -10.746984,-2.84488 -18.255384,-11.89668 -18.845804,-22.71981 -0.33144,-6.075271 1.35949,-11.334321 5.3771,-16.725931 3.47214,-4.65963 9.060554,-7.79731 15.994214,-8.98055 1.64427,-0.28059 2.53959,-0.42104 3.44457,-0.42285 z m -0.64146,2.89792 c -1.74315,0 -7.04117,1.36633 -8.8173,2.27412 -4.621734,2.36222 -8.424074,6.16267 -7.286874,7.28295 0.5226,0.51478 1.25338,0.10682 2.80556,-1.56636 2.944394,-3.1737 7.396134,-5.31496 11.793394,-5.67219 1.79032,-0.14553 2.57005,-0.35082 2.82057,-0.7436 0.46094,-0.72272 -0.25077,-1.57492 -1.31535,-1.57492 z m -30.105294,11.20694 c 0.0114,0.0141 0.025,0.029 0.0373,0.0436 0.002,-0.0101 0.006,-0.0208 0.008,-0.0312 -0.0155,-0.005 -0.0307,-0.009 -0.0461,-0.0126 z m -2.8627,6.20146 v 4.9e-4 c 0.007,0.005 0.0114,0.009 0.0183,0.0141 -0.001,-0.002 -0.002,-0.005 -0.006,-0.008 -0.002,-0.001 -0.0114,-0.008 -0.0145,-0.008 z m 21.060294,1.18026 c -0.007,3.8e-4 -0.0328,0.005 -0.0698,0.0101 0.002,0.005 0.007,0.0101 0.008,0.0141 0.0303,-0.009 0.0623,-0.0184 0.0679,-0.023 l 4.9e-4,-4.9e-4 v -4.6e-4 -4.8e-4 l -4.9e-4,-4.8e-4 c -0.001,-2.9e-4 -0.002,-6.2e-4 -0.007,-4.7e-4 z m -21.403324,2.552365 c -0.001,0.32409 0.0225,0.596566 0.0746,0.855256 -0.0307,-0.28467 -0.0524,-0.569876 -0.0746,-0.855256 z m 17.55227,17.150206 c 0.0409,0.0417 0.0819,0.0831 0.12258,0.12412 -0.0155,-0.0259 -0.0274,-0.0463 -0.0275,-0.0536 v -4.5e-4 l 4.9e-4,-4.9e-4 v -5e-4 l 4.8e-4,-4.6e-4 h 4.8e-4 v -4.6e-4 h 4.9e-4 4.9e-4 l 4.7e-4,4.6e-4 c 2.6e-4,5e-5 10e-4,3.9e-4 10e-4,4.6e-4 0.002,0.001 0.0114,0.008 0.0218,0.0157 -0.0156,-0.0289 -0.0636,-0.0576 -0.12106,-0.0854 z m 8.519374,0.17565 c -0.0185,0.0142 -0.0371,0.027 -0.0557,0.04 0.0339,0.0179 0.0681,0.0353 0.10326,0.053 -0.0155,-0.0306 -0.0316,-0.0619 -0.0475,-0.0929 z m 67.58077,8.30618 c -0.0105,0.19017 6.3e-4,0.37952 0.0447,0.56555 v 4.8e-4 4.7e-4 h 4.9e-4 v 5e-4 4.6e-4 h 4.6e-4 v 4.9e-4 h 4.9e-4 5e-4 5e-4 v -4.9e-4 h 4.7e-4 l 4.9e-4,-4.6e-4 c 0.007,-0.005 0.0113,-0.0228 0.0172,-0.0295 -0.0105,-0.10305 -0.0226,-0.20631 -0.0341,-0.30928 -0.0105,-0.0751 -0.0204,-0.15057 -0.0316,-0.22812 z m -29.84126,0.41808 c 0.69436,-0.0222 2.38275,1.67338 14.35671,13.8939 9.71441,9.91444 9.12275,9.24598 8.72769,9.86395 -0.83567,1.30726 -0.65283,1.44747 -8.55912,-6.57898 -10.43007,-10.58861 -15.37894,-15.82009 -15.37894,-16.25776 0,-0.2868 0.28186,-0.67 0.62597,-0.85144 0.0726,-0.0381 0.14244,-0.0672 0.22769,-0.0697 z m -23.99226,18.38584 c 0.008,0.10618 0.0146,0.17627 0.0155,0.22051 0.008,0.0309 0.0181,0.0734 0.031,0.12989 -1e-5,-0.0546 5e-5,-0.10922 0,-0.16377 -2e-4,0.0536 -6.7e-4,0.0794 -0.006,0.086 l -4.9e-4,4.7e-4 v 4.7e-4 h -5e-4 v 4.9e-4 h -4.7e-4 -5e-4 -4.6e-4 v -4.9e-4 h -5e-4 v -4.7e-4 c -0.0146,-0.0252 -0.0437,-0.33805 -0.0383,-0.273 z" />
  </g>
</svg>
