<?xml version="1.0" encoding="UTF-8" standalone="no"?>
<!-- Created with Inkscape (http://www.inkscape.org/) -->

<svg
   version="1.1"
   id="svg1"
   width="1081.8646"
   height="1146.3302"
   viewBox="0 0 1081.8646 1146.3302"
   sodipodi:docname="simpledevs.svg"
   inkscape:version="1.4.3 (0d15f75042, 2025-12-25)"
   xmlns:inkscape="http://www.inkscape.org/namespaces/inkscape"
   xmlns:sodipodi="http://sodipodi.sourceforge.net/DTD/sodipodi-0.dtd"
   xmlns="http://www.w3.org/2000/svg"
   xmlns:svg="http://www.w3.org/2000/svg">
  <defs
     id="defs1" />
  <sodipodi:namedview
     id="namedview1"
     pagecolor="#ffffff"
     bordercolor="#000000"
     borderopacity="0.25"
     inkscape:showpageshadow="2"
     inkscape:pageopacity="0.0"
     inkscape:pagecheckerboard="0"
     inkscape:deskcolor="#d1d1d1"
     inkscape:zoom="0.40437667"
     inkscape:cx="567.54016"
     inkscape:cy="675.11313"
     inkscape:window-width="1466"
     inkscape:window-height="1029"
     inkscape:window-x="0"
     inkscape:window-y="0"
     inkscape:window-maximized="0"
     inkscape:current-layer="g1" />
  <g
     inkscape:groupmode="layer"
     inkscape:label="Image"
     id="g1"
     transform="translate(-295.21539,-250.33679)">
    <path
       style="fill:#004569;fill-opacity:1"
       d="m 808.68944,1395.6239 c -130.17163,-6.5653 -249.32711,-62.7471 -348.03365,-164.0979 -42.27219,-43.4046 -74.1707,-88.4601 -103.27205,-145.8679 -37.2693,-73.5207 -56.11518,-144.68912 -61.51553,-232.30372 -2.14105,-34.736 1.2052,-96.1288 6.81481,-125.0296 9.66661,-49.80273 16.33796,-75.20529 28.01334,-106.66673 27.86298,-75.0819 63.64618,-134.2655 118.10118,-195.33334 76.40254,-85.68062 182.22512,-146.75976 289.8919,-167.32109 39.08279,-7.46372 98.18373,-10.61288 139.56947,-7.43689 61.06138,4.68592 126.55349,23.00089 184.93189,51.71643 49.3148,24.25725 103.9737,64.39327 144.1693,105.86343 27.8725,28.75629 41.8299,45.47825 61.6363,73.84479 19.771,28.31582 28.4073,42.76742 44.2995,74.12913 58.4587,115.36214 77.5157,247.23647 53.9313,373.20427 -12.3301,65.8572 -33.6141,123.97582 -67.1691,183.41362 -35.5854,63.0344 -86.8616,122.7114 -146.702,170.7368 -36.1125,28.9823 -89.5011,60.195 -131.3333,76.7814 -51.20901,20.3044 -103.46301,31.5872 -159.33336,34.4037 -26.74232,1.3481 -26.54628,1.3483 -54,-0.036 z m 66,-61.32 c 29.49907,-2.5613 72.28035,-11.5729 100.00005,-21.0645 51.90351,-17.7724 100.92091,-45.1766 148.00001,-82.7423 17.4035,-13.8868 55.4854,-52.0451 71.9261,-72.0704 57.4463,-69.9717 97.2309,-156.3683 112.0693,-243.37062 5.5852,-32.7479 7.1119,-52.0377 7.1282,-90.0647 0.017,-39.0929 -1.2984,-56.7618 -6.5996,-88.6666 -19.7399,-118.80401 -78.0628,-225.74465 -166.4587,-305.21814 -58.4909,-52.58699 -131.6575,-91.46427 -202.33031,-107.50875 -43.52868,-9.8821 -71.37342,-12.66225 -115.06838,-11.48898 -43.21537,1.16039 -83.41852,7.98953 -124.66668,21.17662 -35.82438,11.45311 -78.13746,32.17405 -112,54.84701 -103.38036,69.21921 -180.2453,178.67404 -212.08019,301.99984 -11.42813,44.2717 -16.30217,83.2519 -16.44581,131.5257 -0.10976,36.8866 1.24886,54.8075 6.71016,88.5099 15.76402,97.28182 58.50221,186.96672 125.24509,262.82342 49.56505,56.3333 109.82179,100.0504 177.90409,129.0719 37.2751,15.8893 86.6209,28.2507 128,32.0647 17.93365,1.653 60.55698,1.7484 78.66667,0.1759 z m -1.70069,-160.3125 c -1.20702,-2.3833 -4.36438,-8.2333 -7.01634,-13 -2.65197,-4.7666 -8.72163,-15.7166 -13.48814,-24.3333 -4.76651,-8.6167 -8.96692,-15.6667 -9.33423,-15.6667 -0.36731,0 -9.62652,8.55 -20.57603,19 -10.9495,10.45 -20.48075,19.1926 -21.18054,19.4281 -2.16616,0.7287 -2.49025,-4.1223 -4.03703,-60.4281 -0.82596,-30.0666 -2.03993,-72.3407 -2.6977,-93.9422 -0.65778,-21.60162 -0.99241,-39.47912 -0.74363,-39.72792 0.41215,-0.4121 7.61801,5.4725 57.441,46.90902 61.36898,51.039 88.73408,74.5429 87.77518,75.39 -0.6097,0.5387 -12.3585,2.9907 -26.1085,5.449 -17.59686,3.146 -25.00001,4.9921 -25.00001,6.2339 0,2.0106 5.75021,13.7042 13.94322,28.3549 3.07573,5.5 7.76657,13.9435 10.42409,18.7634 l 4.8319,8.7634 -19.8372,11.5699 c -10.91046,6.3635 -20.36915,11.57 -21.01932,11.57 -0.65017,0 -2.16969,-1.95 -3.37672,-4.3334 z m 16.41168,-20.3558 c 3.64229,-1.8457 6.62235,-3.7262 6.62235,-4.1789 0,-0.4527 -6.94848,-13.6131 -15.44106,-29.2454 -8.49259,-15.6324 -15.75252,-29.6134 -16.13318,-31.0691 -0.56304,-2.153 0.14089,-2.8009 3.77439,-3.4735 2.45658,-0.4548 11.83901,-2.1702 20.84984,-3.8121 9.01082,-1.6418 16.21825,-3.5582 16.0165,-4.2585 -0.60927,-2.115 -94.27515,-79.84252 -95.15468,-78.96302 -0.20234,0.2024 0.16109,15.36532 0.80762,33.69552 0.64654,18.3301 1.20342,43.2275 1.23752,55.3275 0.0341,12.1 0.44901,26.0983 0.92202,31.1074 l 0.86002,9.1073 13.46384,-13.1491 c 7.40511,-7.232 15.0278,-14.5041 16.93932,-16.1602 l 3.47549,-3.0111 15.09387,27.7195 c 15.57241,28.5984 18.53188,33.7195 19.48616,33.7195 0.3067,0 3.5377,-1.5101 7.17998,-3.3558 z m -223.37766,-60.1887 c -27.18994,-6.5114 -51.62659,-27.8202 -61.6844,-53.7888 -5.97884,-15.437 -6.0856,-16.5247 -6.64197,-67.66672 l -0.54032,-49.6666 h 28.68799 c 19.8325,0 28.97449,0.4635 29.61615,1.5018 0.51049,0.826 1.14383,20.176 1.40742,43 l 0.47926,41.49812 4.01364,8.182 c 3.97995,8.1133 8.33596,12.4484 17.32889,17.2455 4.16426,2.2213 8.72185,2.5444 42.33334,3.0009 l 37.66667,0.5116 v 29.1967 29.1967 l -42.33334,-0.1477 c -31.77439,-0.1109 -44.32872,-0.6256 -50.33333,-2.0635 z m 284.66672,-26.9383 v -29.1495 l 19,-0.6673 c 12.6201,-0.4432 20.5995,-1.3443 23.7636,-2.6837 7.39941,-3.1321 14.11011,-9.8152 18.18251,-18.1075 l 3.7205,-7.5759 v -55.33332 c 0,-62.7277 -0.027,-62.9222 -10.3401,-72.9759 -5.78391,-5.6387 -10.34511,-7.8514 -102.99322,-49.9631 -16.13334,-7.3332 -33.08863,-15.086 -37.67844,-17.2285 -4.5898,-2.1425 -13.5898,-6.2112 -20,-9.0416 -12.42979,-5.4882 -62.61194,-28.2989 -82.00143,-37.2743 -25.51855,-11.8126 -38.57881,-25.5783 -45.71382,-48.1832 -1.86058,-5.8947 -2.43714,-14.064 -2.93881,-41.63978 l -0.6241,-34.3064 28.34568,-0.36027 28.34569,-0.36027 15.53605,-46.00001 c 8.54483,-25.3 21.70358,-64.3 29.24169,-86.66667 7.5381,-22.36667 15.23435,-45.01667 17.10279,-50.33333 l 3.39715,-9.66667 h 27.82711 c 15.30491,0 27.84478,0.45 27.86639,1 0.0216,0.55 -16.901,51.85 -37.60578,114 l -37.64506,113.00001 h -20.88287 -20.88286 l 0.63778,9.66669 c 0.78888,11.9569 3.93605,19.5396 10.04332,24.1978 2.57806,1.9664 20.49936,10.6776 39.82511,19.3582 19.32576,8.6806 39.03774,17.5772 43.80441,19.7702 4.76666,2.193 11.66666,5.3351 15.33333,6.9823 3.66667,1.6473 14.33025,6.5268 23.69686,10.8433 9.36662,4.3165 17.25772,7.8482 17.53592,7.8482 0.2781,0 5.5145,2.3399 11.6364,5.1997 6.122,2.8598 26.7308,12.2145 45.7975,20.7881 57.92241,26.0458 58.56101,26.3891 69.28011,37.2483 11.3703,11.5188 18.2108,24.367 21.3649,40.1287 1.8324,9.1569 2.0777,20.202 1.7024,76.6667 -0.4878,73.40732 -0.3952,72.55342 -9.9674,91.96852 -7.3298,14.8667 -23.8518,31.1176 -39.0467,38.4058 -16.567,7.9463 -25.51281,9.5942 -52.08271,9.5942 h -22.5839 z m -191.43274,-49.962 c -0.37528,-0.9779 -0.50645,-6.8279 -0.29149,-13 l 0.39084,-11.22192 13,-0.3816 13,-0.3816 v 13.38162 13.3816 h -12.70851 c -9.36166,0 -12.88821,-0.4682 -13.39084,-1.7781 z m 139.21394,-47.99682 -0.44791,-28.4417 -4.00398,-6.5583 c -4.38798,-7.1874 -9.28511,-10.0992 -40.66269,-24.1784 -14.15823,-6.3529 -56.64945,-25.6165 -70.66667,-32.0371 -5.60795,-2.5688 -49.75366,-22.5359 -97.39458,-44.0516 -47.68803,-21.537 -54.49155,-25.2803 -64.7453,-35.6228 -6.09714,-6.15 -10.98503,-12.6262 -13.71537,-18.1723 -8.68534,-17.6425 -8.58174,-16.6224 -9.13204,-89.9172 -0.46899,-62.46332 -0.33128,-67.5861 2.1423,-79.69448 3.70917,-18.15671 10.94061,-32.53699 22.64037,-45.02215 10.81932,-11.54561 19.76211,-17.27468 35.85633,-22.97082 11.52186,-4.07787 12.09645,-4.14133 42.01495,-4.63962 l 30.33334,-0.5052 v 29.45997 29.45997 h -21.94999 c -18.66171,0 -23.01427,0.3982 -29.05436,2.65809 -8.40699,3.14546 -15.79356,10.24926 -19.58021,18.83066 -2.58961,5.86862 -2.72347,8.88885 -2.87307,64.82321 -0.15337,57.34487 -0.0921,58.81427 2.71549,65.16127 3.59242,8.1213 6.89227,11.6595 15.37923,16.4899 6.22378,3.5423 64.60174,30.4598 128.69624,59.3406 87.34746,39.3585 117.94962,53.827 125.91932,59.534 12.4923,8.9455 19.709,19.7822 24.8794,37.3593 2.5185,8.5617 2.9646,14.0661 3.523,43.4697 l 0.6393,33.6666 h -30.0326 -30.03258 z m -166.44792,9.7749 v -13.3333 h 13.28505 13.28505 l 0.38162,-13 0.38161,-13 13,-0.3816 13,-0.3816 0.29358,-6.2851 c 0.16147,-3.4567 0.31147,-9.285 0.33334,-12.9517 l 0.0397,-6.6666 13,-0.3817 13,-0.3816 v 13.3816 13.3817 H 798.68944 785.3561 v 13.3333 13.3333 h -13.33333 -13.33333 v 13.3333 13.3334 H 745.3561 732.02277 Z m 107.76444,11.1853 c -0.23711,-1.1815 -0.23702,-7.1815 2e-4,-13.3333 l 0.43129,-11.1853 h 12.56871 12.5687 v 13.3333 13.3334 h -12.5689 c -10.49019,0 -12.6402,-0.3553 -13,-2.1481 z m -26.87555,-25.4075 c -1.11128,-1.1112 -1.17749,-20.8075 -0.0796,-23.6687 0.65851,-1.716 3.14306,-2.109 13.33334,-2.109 h 12.52401 v 13.3333 13.3333 H 826.245 c -6.84445,0 -12.84445,-0.4 -13.33334,-0.8889 z M 1015.7673,671.32472 c -0.3995,-45.66445 -0.4976,-47.18735 -3.4512,-53.59326 -4.3686,-9.47471 -8.9836,-15.00505 -15.37061,-18.41905 -5.358,-2.86402 -7.1761,-3.0046 -43.9227,-3.39612 l -38.3333,-0.40843 v -29.25824 -29.25824 h 41.12 c 36.3693,0 42.2917,0.29965 51.26081,2.59356 31.7313,8.11552 53.8477,29.87669 63.786,62.76156 2.8704,9.49779 3.0393,12.53005 3.5074,62.97822 l 0.4918,53.00006 h -29.3385 -29.3386 z"
       id="path1" />
  </g>
</svg>
